# xmcd
#
# Track frame offsets: 
#        150
#        10926
#        26958
#        38821
#        47321
#        56383
#        67528
#        82064
#        95822
#        110661
#        125237
#        140115
#        165022
#        174818
#        184422
#        195804
#        210132
#        219551
#        234520
#        245752
#
# Disc length: 3445 seconds
#
# Revision: 0
# Processed by: cddbd v1.5.2PL0 Copyright (c) Steve Scherf et al.
# Submitted via: ExactAudioCopy v0.95b4
#
DISCID=0c0d7314
DTITLE=Various Artist - Country Hits Vol. 3
DYEAR=2002
DGENRE=Country
TTITLE0=Kittty Wells - Searching
TTITLE1=Mell Tills - Rose Of El Paso
TTITLE2=Anne Murray - Last Thing On My Mind
TTITLE3=Barbara Mandrell - I Gave my Love To A Railroad Man
TTITLE4=Don Williams feat. Emelou Harris - In My Life
TTITLE5=Kitty Wells - Mommy For A Day
TTITLE6=Nitty Gritty Dirt - Home Again In My Heart
TTITLE7=Porter Wagoner - Nothing Between
TTITLE8=Tammy Wynette - Crying In The Rain
TTITLE9=Terry Gibbs - Free And Easy
TTITLE10=Tina Turner - Good Hearted Woman
TTITLE11=Dottie West - An American Trilogy
TTITLE12=Willie Nelson - I Didn't Sleep A Wink
TTITLE13=Bob Wills - My Window Faces South
TTITLE14=Tina Turner - Soul Deep
TTITLE15=The Osmond Brothers - Takin' Country To The City
TTITLE16=Tex Ritter - Froggy Went A Courtin'
TTITLE17=Tanya Tucker - What's Your Mamas Name
TTITLE18=Frankie Laine - Answer Me
TTITLE19=Don Williams - I'm Getting Good At Missing You
EXTD=
EXTT0=
EXTT1=
EXTT2=
EXTT3=
EXTT4=
EXTT5=
EXTT6=
EXTT7=
EXTT8=
EXTT9=
EXTT10=
EXTT11=
EXTT12=
EXTT13=
EXTT14=
EXTT15=
EXTT16=
EXTT17=
EXTT18=
EXTT19=
PLAYORDER=
